<svg width="1920" height="1080" viewBox="0 0 1920 1080" fill="none" xmlns="http://www.w3.org/2000/svg">
  <defs>
    <linearGradient id="bgGradient" x1="0" y1="0" x2="0" y2="1">
      <stop offset="0%" stop-color="white"/>
      <stop offset="100%" stop-color="#f0f0f0"/>
    </linearGradient>
    <g id="star">
      <polygon points="10,1 12,7 18,7 13,11 15,17 10,13 5,17 7,11 2,7 8,7" fill="blue"/>
    </g>
  </defs>
  <rect width="1920" height="1080" fill="url(#bgGradient)"/>
  <!-- Estrela centralizada -->
  <polygon points="965,516 967,522 973,522 968,526 970,532 965,528 960,532 962,526 957,522 963,522" fill="blue"/>
  <!-- Outras estrelas ao redor -->
  <polygon points="710,351 712,357 718,357 713,361 715,367 710,363 705,367 707,361 702,357 708,357" fill="blue"/>
  <polygon points="1210,351 1212,357 1218,357 1213,361 1215,367 1210,363 1205,367 1207,361 1202,357 1208,357" fill="blue"/>
  <polygon points="810,701 812,707 818,707 813,711 815,717 810,713 805,717 807,711 802,707 808,707" fill="blue"/>
  <polygon points="1160,701 1162,707 1168,707 1163,711 1165,717 1160,713 1155,717 1157,711 1152,707 1158,707" fill="blue"/>
  <!-- Estrelas adicionais do lado direito -->
  <polygon points="1410,401 1412,407 1418,407 1413,411 1415,417 1410,413 1405,417 1407,411 1402,407 1408,407" fill="blue"/>
  <polygon points="1560,601 1562,607 1568,607 1563,611 1565,617 1560,613 1555,617 1557,611 1552,607 1558,607" fill="blue"/>
  <polygon points="1710,501 1712,507 1718,507 1713,511 1715,517 1710,513 1705,517 1707,511 1702,507 1708,507" fill="blue"/>
  <polygon points="1810,301 1812,307 1818,307 1813,311 1815,317 1810,313 1805,317 1807,311 1802,307 1808,307" fill="blue"/>
  <polygon points="1610,801 1612,807 1618,807 1613,811 1615,817 1610,813 1605,817 1607,811 1602,807 1608,807" fill="blue"/>
  <!-- Estrelas adicionais do lado esquerdo -->
  <polygon points="210,401 212,407 218,407 213,411 215,417 210,413 205,417 207,411 202,407 208,407" fill="blue"/>
  <polygon points="110,601 112,607 118,607 113,611 115,617 110,613 105,617 107,611 102,607 108,607" fill="blue"/>
  <polygon points="310,801 312,807 318,807 313,811 315,817 310,813 305,817 307,811 302,807 308,807" fill="blue"/>
  <polygon points="410,301 412,307 418,307 413,311 415,317 410,313 405,317 407,311 402,307 408,307" fill="blue"/>
  <polygon points="510,501 512,507 518,507 513,511 515,517 510,513 505,517 507,511 502,507 508,507" fill="blue"/>
</svg>
